<svg data-v-423bf9ae="" xmlns="http://www.w3.org/2000/svg" viewBox="0 0 308.4348102754681 60" class="font"><!----><!----><defs data-v-423bf9ae=""><linearGradient data-v-423bf9ae="" gradientTransform="rotate(25)" id="7538e132-885f-4a79-a161-036444fd66ee" x1="0%" y1="0%" x2="100%" y2="0%"><stop data-v-423bf9ae="" offset="0%" style="stop-color: rgb(40, 139, 88); stop-opacity: 1;"></stop><stop data-v-423bf9ae="" offset="100%" style="stop-color: rgb(21, 34, 241); stop-opacity: 1;"></stop></linearGradient></defs><g data-v-423bf9ae="" id="8e8343c2-d651-4824-949a-d43b3e2a2c6e" fill="url(#7538e132-885f-4a79-a161-036444fd66ee)" transform="matrix(4.347826327328133,0,0,4.347826327328133,0.0000020888284382181155,-13.39130475645782)"><path d="M5.11 13.83L5.11 13.83Q4.54 13.83 4.27 13.59Q3.99 13.35 3.99 12.82L3.99 12.82L3.99 4.14Q3.77 4.16 3.45 4.22Q3.12 4.28 2.77 4.39Q2.41 4.50 2.06 4.65Q1.70 4.81 1.42 5.01Q1.14 5.21 0.96 5.46Q0.79 5.71 0.79 6.02L0.79 6.02Q0.79 6.24 0.84 6.37Q0.90 6.50 0.98 6.57Q1.05 6.63 1.13 6.65Q1.21 6.67 1.24 6.67L1.24 6.67Q1.42 6.67 1.52 6.61Q1.63 6.55 1.72 6.48Q1.81 6.42 1.89 6.36Q1.97 6.30 2.07 6.30L2.07 6.30Q2.15 6.30 2.25 6.34Q2.34 6.38 2.42 6.46Q2.50 6.54 2.55 6.68Q2.60 6.81 2.60 7L2.60 7Q2.60 7.27 2.50 7.47Q2.39 7.67 2.23 7.80Q2.06 7.94 1.84 8.00Q1.63 8.07 1.42 8.07L1.42 8.07Q1.09 8.07 0.82 7.95Q0.56 7.84 0.38 7.64Q0.19 7.44 0.10 7.18Q0 6.91 0 6.61L0 6.61Q0 5.81 0.44 5.23Q0.88 4.64 1.65 4.26Q2.41 3.87 3.43 3.68Q4.45 3.50 5.61 3.50L5.61 3.50Q6.17 3.50 6.69 3.51Q7.22 3.52 7.65 3.54Q8.09 3.56 8.40 3.59Q8.72 3.62 8.86 3.65L8.86 3.65Q9.00 3.68 9.08 3.75Q9.16 3.81 9.20 3.90Q9.24 3.98 9.26 4.07Q9.27 4.16 9.27 4.26L9.27 4.26Q9.27 4.33 9.25 4.43Q9.23 4.53 9.19 4.62Q9.15 4.71 9.08 4.77Q9.02 4.83 8.93 4.83L8.93 4.83Q8.88 4.83 8.82 4.79Q8.76 4.74 8.66 4.67Q8.56 4.60 8.38 4.51Q8.21 4.42 7.93 4.35Q7.64 4.27 7.23 4.21Q6.82 4.15 6.23 4.13L6.23 4.13L6.23 12.82Q6.23 13.35 5.95 13.59Q5.68 13.83 5.11 13.83ZM10.90 8.07L10.90 8.07Q11.16 7.67 11.46 7.35L11.46 7.35Q11.58 7.21 11.72 7.08Q11.87 6.95 12.02 6.85Q12.17 6.75 12.34 6.69Q12.50 6.62 12.67 6.62L12.67 6.62Q13.02 6.62 13.21 6.83Q13.41 7.04 13.41 7.42L13.41 7.42Q13.41 7.65 13.37 7.86Q13.34 8.08 13.23 8.39L13.23 8.39L13.04 8.39Q13.00 8.18 12.84 8.04Q12.69 7.90 12.41 7.90L12.41 7.90Q12.20 7.90 11.99 7.97Q11.79 8.05 11.59 8.17Q11.40 8.29 11.22 8.42Q11.05 8.56 10.90 8.68L10.90 8.68L10.90 13.12Q10.90 13.21 10.88 13.33Q10.85 13.45 10.74 13.56Q10.64 13.67 10.43 13.75Q10.22 13.83 9.86 13.83L9.86 13.83Q9.50 13.83 9.29 13.74Q9.08 13.66 8.97 13.54Q8.86 13.43 8.83 13.30Q8.80 13.18 8.80 13.10L8.80 13.10L8.80 7.83Q8.80 7.63 8.71 7.48Q8.62 7.33 8.40 7.33L8.40 7.33Q8.29 7.33 8.20 7.38Q8.12 7.42 8.03 7.49L8.03 7.49L7.88 7.32Q8.04 7.19 8.23 7.06Q8.43 6.94 8.65 6.84Q8.88 6.75 9.14 6.69Q9.40 6.62 9.69 6.62L9.69 6.62Q9.98 6.62 10.19 6.70Q10.40 6.78 10.53 6.91Q10.66 7.03 10.74 7.19Q10.81 7.35 10.85 7.51Q10.89 7.67 10.90 7.82Q10.90 7.96 10.90 8.07ZM17.22 11.85L17.22 10.18Q17.22 10.01 17.11 9.92Q17.00 9.83 16.83 9.83L16.83 9.83Q16.59 9.83 16.38 9.94Q16.16 10.05 16.00 10.26Q15.83 10.47 15.74 10.78Q15.64 11.09 15.64 11.50L15.64 11.50Q15.64 11.90 15.70 12.16Q15.76 12.42 15.86 12.57Q15.96 12.73 16.08 12.79Q16.21 12.85 16.36 12.85L16.36 12.85Q16.54 12.85 16.69 12.76Q16.85 12.67 16.97 12.52Q17.08 12.38 17.15 12.20Q17.22 12.02 17.22 11.85L17.22 11.85ZM16.13 7.18L16.13 7.18Q15.90 7.18 15.70 7.24Q15.50 7.29 15.36 7.38Q15.22 7.46 15.13 7.56Q15.05 7.66 15.05 7.75L15.05 7.75Q15.05 7.85 15.16 7.89Q15.26 7.94 15.39 7.99Q15.52 8.05 15.63 8.16Q15.74 8.26 15.74 8.48L15.74 8.48Q15.74 8.63 15.68 8.75Q15.62 8.87 15.52 8.96Q15.42 9.05 15.29 9.10Q15.16 9.15 15.01 9.15L15.01 9.15Q14.63 9.15 14.39 8.89Q14.16 8.63 14.16 8.20L14.16 8.20Q14.16 7.79 14.38 7.49Q14.59 7.19 14.95 7Q15.30 6.81 15.74 6.72Q16.19 6.62 16.63 6.62L16.63 6.62Q17.17 6.62 17.65 6.74Q18.14 6.86 18.51 7.11Q18.88 7.36 19.10 7.75Q19.33 8.14 19.33 8.70L19.33 8.70L19.33 12.56Q19.33 12.62 19.33 12.69Q19.34 12.77 19.37 12.83Q19.39 12.89 19.45 12.93Q19.50 12.97 19.61 12.97L19.61 12.97Q19.73 12.97 19.83 12.88Q19.94 12.79 20.02 12.69L20.02 12.69L20.19 12.84Q20.09 12.98 19.95 13.15Q19.80 13.32 19.60 13.47Q19.39 13.62 19.12 13.73Q18.85 13.83 18.50 13.83L18.50 13.83Q18.07 13.83 17.73 13.57Q17.40 13.32 17.29 12.78L17.29 12.78Q17.08 13.08 16.84 13.28Q16.60 13.47 16.36 13.60Q16.11 13.72 15.86 13.77Q15.61 13.83 15.36 13.83L15.36 13.83Q15.03 13.83 14.72 13.73Q14.42 13.62 14.17 13.40Q13.93 13.18 13.78 12.82Q13.64 12.47 13.64 11.96L13.64 11.96Q13.64 11.33 13.88 10.94Q14.13 10.54 14.53 10.27Q14.93 10.00 15.44 9.81Q15.95 9.62 16.48 9.41L16.48 9.41Q16.88 9.25 17.06 8.94Q17.24 8.63 17.24 8.30L17.24 8.30Q17.24 7.79 16.94 7.49Q16.65 7.18 16.13 7.18ZM20.93 7.91L20.93 7.91Q20.89 7.64 20.80 7.49Q20.71 7.33 20.49 7.33L20.49 7.33Q20.37 7.33 20.29 7.38Q20.20 7.42 20.10 7.49L20.10 7.49L19.97 7.32Q20.13 7.19 20.32 7.06Q20.51 6.94 20.74 6.84Q20.97 6.75 21.23 6.69Q21.49 6.62 21.77 6.62L21.77 6.62Q22.18 6.62 22.44 6.76Q22.69 6.90 22.84 7.11Q22.98 7.32 23.04 7.56Q23.11 7.80 23.13 7.99L23.13 7.99Q23.39 10.06 23.70 11.13Q24.01 12.20 24.45 12.20L24.45 12.20Q24.68 12.20 24.91 11.94Q25.13 11.68 25.30 11.22Q25.46 10.77 25.57 10.17Q25.67 9.57 25.67 8.89L25.67 8.89Q25.67 8.44 25.61 8.12Q25.55 7.81 25.47 7.60Q25.40 7.39 25.33 7.25Q25.27 7.11 25.27 7L25.27 7Q25.27 6.90 25.35 6.83Q25.44 6.76 25.55 6.71Q25.66 6.67 25.78 6.64Q25.90 6.62 25.98 6.62L25.98 6.62Q26.17 6.62 26.26 6.68Q26.35 6.73 26.41 6.89L26.41 6.89Q26.47 7.09 26.49 7.41Q26.52 7.74 26.52 8.11L26.52 8.11Q26.52 8.63 26.44 9.26Q26.37 9.89 26.23 10.53Q26.08 11.16 25.85 11.76Q25.63 12.35 25.32 12.81Q25.01 13.28 24.61 13.55Q24.22 13.83 23.73 13.83L23.73 13.83Q23.17 13.83 22.75 13.50Q22.33 13.17 22.04 12.65Q21.75 12.12 21.56 11.46Q21.37 10.81 21.25 10.15Q21.13 9.49 21.06 8.90Q20.99 8.31 20.93 7.91ZM32.12 8.99L29.42 10.58Q29.42 10.80 29.49 11.06Q29.55 11.31 29.67 11.57Q29.80 11.83 29.98 12.07Q30.16 12.30 30.40 12.49Q30.63 12.67 30.92 12.78Q31.21 12.89 31.55 12.89L31.55 12.89Q31.79 12.89 31.99 12.84Q32.20 12.78 32.38 12.69Q32.55 12.59 32.72 12.47Q32.88 12.34 33.04 12.20L33.04 12.20L33.22 12.36Q33.06 12.57 32.81 12.82Q32.57 13.08 32.22 13.30Q31.87 13.52 31.40 13.67Q30.94 13.82 30.34 13.82L30.34 13.82Q29.75 13.82 29.19 13.60Q28.62 13.38 28.18 12.95Q27.75 12.52 27.48 11.88Q27.22 11.24 27.22 10.38L27.22 10.38Q27.22 9.75 27.38 9.24Q27.54 8.72 27.81 8.30Q28.08 7.88 28.43 7.57Q28.79 7.25 29.19 7.04Q29.59 6.84 30.00 6.73Q30.41 6.62 30.80 6.62L30.80 6.62Q31.30 6.62 31.68 6.73Q32.05 6.84 32.30 7.03Q32.55 7.21 32.68 7.45Q32.80 7.70 32.80 7.96L32.80 7.96Q32.80 8.29 32.61 8.54Q32.43 8.80 32.12 8.99L32.12 8.99ZM29.35 10.02L30.80 9.19Q30.88 9.14 30.94 9.09Q31.00 9.04 31.04 8.97Q31.07 8.89 31.09 8.79Q31.10 8.68 31.10 8.52L31.10 8.52Q31.10 8.35 31.07 8.15Q31.03 7.94 30.94 7.75Q30.85 7.57 30.71 7.44Q30.58 7.32 30.39 7.32L30.39 7.32Q30.14 7.32 29.97 7.47Q29.79 7.62 29.68 7.85Q29.57 8.08 29.50 8.38Q29.44 8.67 29.40 8.98Q29.37 9.28 29.36 9.55Q29.35 9.83 29.35 10.02L29.35 10.02ZM36.11 4.21L36.11 13.12Q36.11 13.21 36.08 13.33Q36.05 13.45 35.94 13.56Q35.83 13.67 35.61 13.75Q35.40 13.83 35.03 13.83L35.03 13.83Q34.67 13.83 34.47 13.74Q34.26 13.66 34.16 13.54Q34.06 13.43 34.04 13.30Q34.02 13.18 34.02 13.10L34.02 13.10L34.02 4.29Q34.02 4.09 33.92 3.94Q33.83 3.79 33.61 3.79L33.61 3.79Q33.50 3.79 33.41 3.83Q33.33 3.87 33.23 3.94L33.23 3.94L33.09 3.78Q33.25 3.65 33.44 3.52Q33.63 3.40 33.86 3.30Q34.09 3.21 34.35 3.14Q34.61 3.08 34.90 3.08L34.90 3.08Q35.34 3.08 35.59 3.20Q35.83 3.32 35.95 3.50Q36.07 3.67 36.09 3.87Q36.11 4.06 36.11 4.21L36.11 4.21ZM43.11 14.71L43.11 14.71Q43.39 14.71 43.65 14.61Q43.92 14.51 44.13 14.28Q44.34 14.05 44.47 13.69Q44.60 13.32 44.60 12.78L44.60 12.78Q44.60 12.21 44.31 11.67Q44.03 11.13 43.60 10.61Q43.18 10.08 42.68 9.57Q42.18 9.05 41.76 8.51Q41.33 7.98 41.05 7.41Q40.76 6.84 40.76 6.21L40.76 6.21Q40.76 5.59 40.99 5.09Q41.22 4.59 41.61 4.23Q42.01 3.88 42.53 3.69Q43.05 3.50 43.65 3.50L43.65 3.50Q44.28 3.50 44.78 3.63Q45.27 3.77 45.62 4.00Q45.96 4.22 46.14 4.54Q46.32 4.85 46.32 5.20L46.32 5.20Q46.32 5.36 46.27 5.53Q46.22 5.71 46.12 5.85Q46.02 6.00 45.86 6.09Q45.71 6.19 45.49 6.19L45.49 6.19Q45.24 6.19 45.12 6.03Q45.00 5.88 44.94 5.65Q44.88 5.43 44.84 5.16Q44.80 4.89 44.71 4.66Q44.63 4.44 44.45 4.28Q44.27 4.13 43.93 4.13L43.93 4.13Q43.74 4.13 43.56 4.21Q43.38 4.29 43.23 4.46Q43.09 4.63 43.00 4.89Q42.91 5.15 42.91 5.50L42.91 5.50Q42.91 5.91 43.08 6.30Q43.25 6.69 43.53 7.07Q43.81 7.45 44.17 7.83Q44.53 8.21 44.90 8.60Q45.27 8.98 45.63 9.39Q45.99 9.80 46.27 10.23Q46.55 10.67 46.72 11.15Q46.89 11.63 46.89 12.15L46.89 12.15Q46.89 12.93 46.60 13.53Q46.30 14.14 45.79 14.55Q45.28 14.96 44.60 15.18Q43.91 15.40 43.14 15.40L43.14 15.40Q42.44 15.40 41.91 15.23Q41.37 15.05 41.00 14.77Q40.63 14.48 40.44 14.11Q40.26 13.75 40.26 13.36L40.26 13.36Q40.26 13.19 40.31 13.01Q40.36 12.82 40.46 12.66Q40.56 12.50 40.71 12.40Q40.86 12.29 41.06 12.29L41.06 12.29Q41.26 12.29 41.39 12.39Q41.51 12.50 41.59 12.67Q41.67 12.84 41.71 13.06Q41.76 13.28 41.82 13.50Q41.87 13.73 41.95 13.95Q42.03 14.16 42.18 14.33Q42.32 14.51 42.55 14.61Q42.77 14.71 43.11 14.71ZM51.46 7.21L50.40 7.21L50.40 12.26Q50.40 12.63 50.54 12.77Q50.67 12.91 50.91 12.91L50.91 12.91Q51.10 12.91 51.24 12.80Q51.39 12.70 51.49 12.57L51.49 12.57Q51.61 12.43 51.70 12.24L51.70 12.24L51.91 12.33Q51.81 12.55 51.67 12.81Q51.53 13.07 51.30 13.29Q51.06 13.51 50.71 13.67Q50.36 13.82 49.83 13.82L49.83 13.82Q49.53 13.82 49.25 13.73Q48.97 13.64 48.76 13.45Q48.54 13.25 48.41 12.97Q48.28 12.68 48.28 12.28L48.28 12.28L48.28 7.21L47.52 7.21L47.52 6.72Q47.71 6.72 48.05 6.62Q48.39 6.52 48.75 6.29Q49.11 6.06 49.42 5.67Q49.72 5.28 49.85 4.70L49.85 4.70L50.40 4.70L50.40 6.72L51.52 6.72Q52.06 6.72 52.06 6.54L52.06 6.54Q52.06 6.47 51.99 6.44Q51.93 6.42 51.84 6.38Q51.75 6.34 51.69 6.28Q51.62 6.21 51.62 6.05L51.62 6.05Q51.62 5.86 51.74 5.75Q51.86 5.64 52.05 5.64L52.05 5.64Q52.17 5.64 52.26 5.69Q52.36 5.74 52.42 5.83Q52.48 5.91 52.51 6.02Q52.54 6.13 52.54 6.24L52.54 6.24Q52.54 6.69 52.28 6.95Q52.03 7.21 51.46 7.21L51.46 7.21ZM52.33 10.22L52.33 10.22Q52.33 9.32 52.59 8.65Q52.85 7.98 53.28 7.53Q53.72 7.08 54.29 6.85Q54.87 6.62 55.49 6.62L55.49 6.62Q56.12 6.62 56.70 6.83Q57.27 7.04 57.71 7.47Q58.14 7.90 58.40 8.56Q58.66 9.22 58.66 10.12L58.66 10.12Q58.66 11.02 58.40 11.71Q58.14 12.40 57.71 12.87Q57.27 13.34 56.70 13.59Q56.12 13.83 55.49 13.83L55.49 13.83Q54.87 13.83 54.29 13.60Q53.72 13.37 53.28 12.92Q52.85 12.47 52.59 11.79Q52.33 11.12 52.33 10.22ZM56.53 10.15L56.53 10.15Q56.53 9.60 56.50 9.10Q56.46 8.59 56.35 8.19Q56.24 7.79 56.03 7.56Q55.83 7.32 55.49 7.32L55.49 7.32Q55.16 7.32 54.95 7.57Q54.75 7.82 54.64 8.23Q54.53 8.63 54.50 9.15Q54.46 9.67 54.46 10.22L54.46 10.22Q54.46 10.77 54.50 11.29Q54.53 11.81 54.64 12.22Q54.75 12.63 54.95 12.88Q55.16 13.13 55.49 13.13L55.49 13.13Q55.83 13.13 56.03 12.87Q56.24 12.61 56.35 12.19Q56.46 11.76 56.50 11.23Q56.53 10.70 56.53 10.15ZM62.12 8.07L62.12 8.07Q62.38 7.67 62.67 7.35L62.67 7.35Q62.79 7.21 62.94 7.08Q63.08 6.95 63.24 6.85Q63.39 6.75 63.55 6.69Q63.72 6.62 63.88 6.62L63.88 6.62Q64.23 6.62 64.43 6.83Q64.63 7.04 64.63 7.42L64.63 7.42Q64.63 7.65 64.59 7.86Q64.55 8.08 64.44 8.39L64.44 8.39L64.25 8.39Q64.21 8.18 64.06 8.04Q63.91 7.90 63.62 7.90L63.62 7.90Q63.41 7.90 63.21 7.97Q63 8.05 62.81 8.17Q62.61 8.29 62.44 8.42Q62.26 8.56 62.12 8.68L62.12 8.68L62.12 13.12Q62.12 13.21 62.09 13.33Q62.06 13.45 61.96 13.56Q61.85 13.67 61.64 13.75Q61.43 13.83 61.07 13.83L61.07 13.83Q60.71 13.83 60.50 13.74Q60.29 13.66 60.18 13.54Q60.07 13.43 60.05 13.30Q60.02 13.18 60.02 13.10L60.02 13.10L60.02 7.83Q60.02 7.63 59.93 7.48Q59.83 7.33 59.62 7.33L59.62 7.33Q59.50 7.33 59.42 7.38Q59.34 7.42 59.24 7.49L59.24 7.49L59.10 7.32Q59.25 7.19 59.45 7.06Q59.64 6.94 59.87 6.84Q60.09 6.75 60.35 6.69Q60.61 6.62 60.90 6.62L60.90 6.62Q61.20 6.62 61.40 6.70Q61.61 6.78 61.75 6.91Q61.88 7.03 61.95 7.19Q62.03 7.35 62.07 7.51Q62.10 7.67 62.11 7.82Q62.12 7.96 62.12 8.07ZM70.94 7.70L70.94 7.70Q70.94 8.95 70.70 10.11Q70.46 11.28 70.03 12.30Q69.60 13.32 69.02 14.17Q68.43 15.01 67.74 15.61Q67.05 16.21 66.28 16.55Q65.51 16.88 64.72 16.88L64.72 16.88Q64.12 16.88 63.79 16.68Q63.46 16.48 63.46 16.14L63.46 16.14Q63.46 16.01 63.51 15.89Q63.55 15.76 63.62 15.67Q63.68 15.57 63.78 15.51Q63.88 15.46 63.98 15.46L63.98 15.46Q64.11 15.46 64.20 15.59Q64.29 15.72 64.38 15.87Q64.48 16.02 64.61 16.15Q64.75 16.28 64.99 16.28L64.99 16.28Q65.30 16.28 65.63 16.18Q65.97 16.07 66.31 15.87Q66.64 15.67 66.98 15.39Q67.32 15.11 67.65 14.76L67.65 14.76Q67.46 14.07 67.21 13.25Q66.96 12.43 66.68 11.61Q66.40 10.78 66.11 10.01Q65.82 9.24 65.55 8.65Q65.27 8.05 65.01 7.69Q64.76 7.33 64.56 7.33L64.56 7.33Q64.43 7.33 64.36 7.38Q64.29 7.42 64.19 7.49L64.19 7.49L64.05 7.32Q64.19 7.21 64.34 7.08Q64.49 6.96 64.70 6.86Q64.90 6.75 65.17 6.69Q65.45 6.62 65.83 6.62L65.83 6.62Q66.25 6.62 66.61 6.81Q66.96 7 67.26 7.51L67.26 7.51Q67.47 7.88 67.70 8.41Q67.93 8.93 68.16 9.58Q68.39 10.23 68.63 10.99Q68.87 11.74 69.10 12.57L69.10 12.57Q69.53 11.68 69.79 10.69Q70.05 9.69 70.05 8.64L70.05 8.64Q70.05 8.26 70 8.00Q69.95 7.73 69.89 7.54Q69.83 7.36 69.78 7.22Q69.73 7.09 69.73 6.99L69.73 6.99Q69.73 6.88 69.82 6.81Q69.90 6.74 70.01 6.70Q70.13 6.66 70.25 6.64Q70.37 6.62 70.45 6.62L70.45 6.62Q70.64 6.62 70.73 6.70Q70.83 6.77 70.88 6.91Q70.93 7.05 70.94 7.25Q70.94 7.45 70.94 7.70Z"></path></g><!----><!----></svg>